<svg width="109" height="47" viewBox="0 0 109 47" fill="none" xmlns="http://www.w3.org/2000/svg">
<g clip-path="url(#clip0_1_2603)">
<g clip-path="url(#clip1_1_2603)">
<path d="M10.1386 9.77539C11.7545 9.77539 13.2303 10.2027 14.5626 11.0537C15.1263 10.6731 15.7152 10.3643 16.3293 10.1345C16.9505 9.89748 17.6076 9.77539 18.2971 9.77539C19.0907 9.77539 19.8627 9.94057 20.6096 10.2638C21.3565 10.5798 22.0208 10.9963 22.6061 11.5134L21.3852 14.7021C20.8969 13.9839 20.3295 13.3016 19.6903 12.6481C19.0476 11.9982 18.3474 11.5349 17.5933 11.2548C16.8356 10.9676 16.0312 11.0537 15.1802 11.5134C16.1569 12.2603 16.9254 13.2011 17.4927 14.3286C18.0565 15.449 18.3402 16.6663 18.3402 17.977C18.3402 19.4923 17.9703 20.8712 17.2342 22.1137C16.5052 23.3597 15.5177 24.3508 14.2753 25.0869C13.0292 25.8159 11.6503 26.1786 10.1386 26.1786C9.21931 26.1786 8.33236 26.0313 7.48132 25.7333C6.63746 25.4389 5.8726 25.0295 5.18315 24.5124C4.97129 24.6201 4.7702 24.7207 4.57988 24.814C4.38597 24.9002 4.21361 25.0079 4.06279 25.13C3.5457 25.4963 3.20816 25.92 3.05734 26.4084C2.90293 26.8968 2.97116 27.3205 3.25843 27.6724C3.63907 28.1607 4.19206 28.4265 4.91024 28.4624C5.62842 28.5019 6.46151 28.4013 7.4095 28.1607C8.3575 27.913 9.36295 27.6113 10.4258 27.2558C11.4959 26.8932 12.5732 26.5377 13.6576 26.1929C14.7493 25.8482 15.7978 25.6004 16.8033 25.446C18.2396 25.2162 19.4928 25.3239 20.5665 25.762C21.6474 26.1929 22.4948 26.8393 23.1089 27.7011C23.7193 28.5557 24.0605 29.5073 24.1287 30.5595C24.1933 31.6116 23.9312 32.635 23.3387 33.6333C22.7534 34.6567 21.9239 35.4933 20.8538 36.1469C19.7909 36.8076 18.6023 37.3139 17.2916 37.6694C15.9881 38.0321 14.6811 38.2871 13.3704 38.4307C12.0669 38.5743 10.8891 38.6461 9.83694 38.6461C9.14749 38.6461 8.3575 38.5815 7.46696 38.4594C6.5836 38.3445 5.70024 38.1506 4.8097 37.8849C3.92634 37.6156 3.13275 37.2421 2.42535 36.7645C1.71794 36.2941 1.21163 35.7016 0.90281 34.9834C0.626311 34.3119 0.543721 33.565 0.658629 32.7427C0.773538 31.9276 1.15417 31.3135 1.79335 30.9042L1.95135 31.134C1.58867 31.5146 1.54917 31.9132 1.83644 32.3262C2.11294 32.7355 2.4038 33.0731 2.71262 33.3316C3.53493 34.0498 4.57988 34.5525 5.84387 34.8398C7.11505 35.1343 8.48677 35.2851 9.95185 35.2851C11.4169 35.2851 12.8712 35.163 14.3184 34.926C15.7619 34.6854 17.0798 34.3586 18.2684 33.9493C19.4641 33.5363 20.4265 33.1018 21.1554 32.6422C22.1034 32.0174 22.7211 31.3638 23.0083 30.6744C23.3028 29.9849 23.2884 29.3781 22.9652 28.8502C22.6492 28.3259 22.046 27.9812 21.1554 27.816C20.2721 27.6437 19.1302 27.7801 17.7225 28.2182C16.6668 28.527 15.5572 28.9364 14.3902 29.4535C13.2196 29.9634 12.0382 30.423 10.8424 30.8324C9.65381 31.2417 8.48677 31.4715 7.33768 31.5218C6.48305 31.5218 5.62124 31.3854 4.75224 31.1196C3.87966 30.8503 3.16507 30.4122 2.61207 29.7982C2.06626 29.177 1.84721 28.3547 1.95135 27.3277C2.02676 26.5053 2.31762 25.8303 2.82753 25.3024C3.34461 24.7781 3.93711 24.3508 4.60861 24.024C3.80425 23.2771 3.15789 22.3794 2.66953 21.3237C2.18835 20.2716 1.95135 19.1548 1.95135 17.977C1.95135 16.4652 2.31403 15.0863 3.04298 13.8403C3.76834 12.5978 4.75583 11.6103 6.00187 10.8814C7.24432 10.1453 8.62322 9.77539 10.1386 9.77539ZM7.68241 10.8957C6.8565 11.1758 6.21733 11.754 5.75769 12.6337C5.29806 13.5063 5.05388 14.5513 5.02515 15.765C4.99642 16.9823 5.21547 18.2463 5.68587 19.557C6.14551 20.8605 6.75596 21.9808 7.52441 22.918C8.30004 23.8589 9.13313 24.5196 10.0237 24.9002C10.9214 25.2844 11.7832 25.3383 12.6091 25.0582C13.4494 24.7709 14.0957 24.1928 14.5482 23.3202C14.9971 22.4512 15.2412 21.4063 15.2807 20.189C15.3166 18.9753 15.1084 17.7113 14.6487 16.397C14.1891 15.0863 13.5643 13.9696 12.7815 13.0503C11.9951 12.131 11.1512 11.4667 10.2535 11.0537C9.36295 10.6444 8.50472 10.5905 7.68241 10.8957Z" fill="white"/>
<path d="M29.354 25.2449C29.354 27.2774 29.5551 28.6419 29.9573 29.3386C30.3667 30.028 30.9843 30.3584 31.8102 30.3296V30.6744H23.4219V30.3296C24.2442 30.3584 24.8582 30.028 25.2604 29.3386C25.6698 28.6419 25.878 27.2774 25.878 25.2449V17.7903C25.878 15.7327 25.6698 14.3538 25.2604 13.6536C24.8582 12.9461 24.2442 12.6158 23.4219 12.6625V12.3177C24.5494 12.3177 25.6913 12.0843 26.8404 11.6139C27.9967 11.1363 28.8369 10.5223 29.354 9.77539V14.3574C29.8891 13.5925 30.5031 12.8564 31.1926 12.1454C31.882 11.438 32.6469 10.867 33.4907 10.4361C34.3418 9.99803 35.2574 9.77539 36.2342 9.77539C37.0278 9.77539 37.7998 9.94057 38.5467 10.2638C39.2936 10.5797 39.9579 10.9963 40.5432 11.5134L39.308 14.7452C38.9237 14.1527 38.4749 13.5674 37.9578 12.9928C37.4479 12.4183 36.8985 11.9587 36.306 11.6139C35.7207 11.262 35.0923 11.0968 34.4244 11.1256C33.7636 11.1543 33.0742 11.4631 32.356 12.0448C31.7312 12.5332 31.1638 13.1149 30.6467 13.7828C30.1368 14.4543 29.7059 15.072 29.354 15.6357V25.2449Z" fill="white"/>
<path d="M63.0156 29.0944C62.7355 29.6617 62.3441 30.0675 61.8378 30.3153C61.3387 30.5559 60.8072 30.6744 60.2434 30.6744C58.9866 30.6744 58.0386 30.2973 57.3995 29.5396C56.7567 28.7856 56.2432 27.895 55.8626 26.868C55.604 26.1211 55.367 25.3132 55.1587 24.4406C54.9577 23.5716 54.7781 22.6846 54.6273 21.7833C54.5303 23.2987 54.2107 24.735 53.6649 26.0924C53.1263 27.4533 52.3148 28.5593 51.2231 29.4104C50.1315 30.2542 48.6736 30.6744 46.8566 30.6744C45.1904 30.6744 43.79 30.2147 42.6624 29.2955C41.5313 28.369 41.0214 27.0081 41.1255 25.2162C41.201 24.0599 41.5062 23.0725 42.0448 22.2573C42.5906 21.435 43.2657 20.7061 44.0701 20.0741C44.8744 19.4421 45.7111 18.8603 46.5837 18.3217C47.4635 17.7867 48.2678 17.2265 48.9968 16.6412C49.7221 16.0487 50.2787 15.3628 50.6629 14.5872C51.2267 13.5171 51.3668 12.6337 51.0795 11.9443C50.7994 11.2477 50.268 10.8024 49.4851 10.6085C48.7095 10.4182 47.8333 10.5367 46.8566 10.9676C45.9553 11.3805 45.0935 11.9658 44.2712 12.7199C43.456 13.4776 42.8276 14.1527 42.3895 14.7452L41.1686 11.5134C42.2962 10.9783 43.5602 10.5582 44.9606 10.2494C46.3575 9.93339 47.7974 9.77539 49.284 9.77539C51.18 9.77539 52.6523 10.0411 53.708 10.5654C54.7602 11.0932 55.5537 11.912 56.0924 13.0216C56.6274 14.124 57.0619 15.5172 57.3995 17.2014C57.6867 18.5156 57.9453 19.8514 58.1751 21.2088C58.4049 22.5697 58.6778 23.8481 58.9938 25.0439C59.317 26.2324 59.7479 27.2379 60.2865 28.0602C60.5163 28.4157 60.8647 28.7353 61.3351 29.0226C61.8127 29.3026 62.2867 29.2488 62.7571 28.8646L63.0156 29.0944ZM53.6362 16.1241C53.4531 15.4346 53.234 14.7703 52.9755 14.1275C52.7169 13.4884 52.3938 12.921 52.0131 12.4326C52.1639 13.0754 52.1711 13.7505 52.0275 14.4579C51.891 15.1581 51.672 15.7794 51.3668 16.3252C50.9538 17.0649 50.4188 17.7292 49.758 18.3217C49.1045 18.9178 48.4294 19.4959 47.7328 20.0597C47.0433 20.6271 46.4185 21.2483 45.8655 21.927C45.3197 22.6092 44.9463 23.4064 44.7452 24.3257C44.562 25.2737 44.6446 26.1786 44.9893 27.0404C45.3341 27.9022 46.0594 28.4732 47.1726 28.7497C48.1206 28.9795 49.0004 28.9184 49.8155 28.5629C50.6378 28.2002 51.3416 27.6688 51.9269 26.9686C52.5194 26.2612 52.9611 25.5107 53.2484 24.7135C53.6793 23.4495 53.9271 22.0203 53.9953 20.4188C54.0599 18.8208 53.9414 17.3881 53.6362 16.1241Z" fill="white"/>
<path d="M75.8037 3.28344L74.5685 6.51524C74.3387 6.12384 73.9796 5.60675 73.4912 4.96398C73.0029 4.3248 72.457 3.75026 71.8538 3.24035C71.2505 2.72326 70.6544 2.47908 70.0727 2.50781C69.5053 2.53654 69.0816 2.79149 68.7943 3.26908C68.5142 3.73949 68.3383 4.27094 68.2629 4.86343C68.1839 5.44875 68.148 5.96225 68.148 6.40033V9.77577H72.9454V10.4796H68.148V25.2453C68.148 27.2778 68.3491 28.6423 68.7512 29.3389C69.1606 30.0284 69.7782 30.3588 70.6041 30.33V30.6748H62.2158V30.33C63.0381 30.3588 63.6522 30.0284 64.0544 29.3389C64.4637 28.6423 64.672 27.2778 64.672 25.2453V10.4796H62.2158V9.77577H64.672V8.62669C64.672 6.55115 65.2178 4.89934 66.3094 3.67126C67.4011 2.43599 68.8949 1.81836 70.7909 1.81836C71.9184 1.81836 72.8951 1.97277 73.721 2.27799C74.5433 2.58681 75.2364 2.92076 75.8037 3.28344Z" fill="white"/>
<path d="M78.501 25.2455C78.501 27.2779 78.7021 28.6424 79.1043 29.3391C79.5136 30.0285 80.1313 30.3589 80.9572 30.3302V30.6749H72.5688V30.3302C73.3912 30.3589 74.0052 30.0285 74.4074 29.3391C74.8167 28.6424 75.025 27.2779 75.025 25.2455V17.7908C75.025 15.7332 74.8167 14.3543 74.4074 13.6541C74.0052 12.9467 73.3912 12.6163 72.5688 12.663V12.3183C73.6964 12.3183 74.8383 12.0848 75.9874 11.6144C77.1436 11.1368 77.9839 10.5228 78.501 9.7759V25.2455ZM76.763 4.36084C77.4525 4.36084 78.045 4.60502 78.5441 5.09338C79.0504 5.57456 79.3054 6.16347 79.3054 6.8601C79.3054 7.57828 79.0504 8.18155 78.5441 8.66991C78.045 9.15827 77.4525 9.40245 76.763 9.40245C76.0736 9.40245 75.4739 9.15827 74.9676 8.66991C74.4684 8.18155 74.2207 7.57828 74.2207 6.8601C74.2207 6.16347 74.4684 5.57456 74.9676 5.09338C75.4739 4.60502 76.0736 4.36084 76.763 4.36084Z" fill="white"/>
<path d="M87.0076 20.2468C86.8424 20.4012 86.6916 20.5556 86.548 20.7064C86.4115 20.8608 86.2823 21.0153 86.1602 21.1661V25.2453C86.1602 27.2778 86.3613 28.6423 86.7634 29.3389C87.1728 30.0284 87.7904 30.3588 88.6163 30.33V30.6748H80.228V30.33C81.0503 30.3588 81.6644 30.0284 82.0666 29.3389C82.4759 28.6423 82.6842 27.2778 82.6842 25.2453V9.77577C82.6842 7.72896 82.4759 6.35724 82.0666 5.66779C81.6644 4.97116 81.0503 4.64798 80.228 4.70543V4.36071C81.3556 4.36071 82.4975 4.12371 83.6466 3.64253C84.8028 3.16494 85.6431 2.55808 86.1602 1.81836V20.0601C86.3613 19.8231 86.5695 19.5969 86.7922 19.385C87.0112 19.1659 87.2374 18.9397 87.4673 18.7099L93.7729 12.591C94.1822 12.1817 94.2756 11.7077 94.0458 11.169C94.017 11.1116 93.9883 11.0541 93.9596 10.9967C93.938 10.932 93.9309 10.8818 93.9309 10.853C93.719 10.4724 93.4605 10.2498 93.1552 10.1923C92.8464 10.1277 92.4263 10.1025 91.8912 10.1205V9.77577H98.3548V10.1205C97.7588 10.1025 97.3135 10.2067 97.019 10.4365C96.7318 10.6663 96.405 10.9608 96.0423 11.3127L89.9952 17.173C90.4333 17.0222 90.9002 16.8929 91.3885 16.7852C91.8769 16.6811 92.3868 16.6272 92.9254 16.6272C94.053 16.6272 94.9507 16.9073 95.6114 17.4603C96.2793 18.0061 96.7928 18.7099 97.1483 19.5717C97.511 20.4335 97.7983 21.3241 98.0101 22.2433C98.2399 23.2201 98.4733 24.1824 98.7139 25.1304C98.9617 26.0784 99.4177 27.0551 100.078 28.0606C100.337 28.4161 100.696 28.7357 101.156 29.0229C101.623 29.303 102.097 29.2492 102.578 28.8649L102.851 29.0948C102.571 29.6621 102.176 30.0679 101.658 30.3157C101.149 30.5563 100.614 30.6748 100.05 30.6748C98.9653 30.6748 98.1035 30.3875 97.4643 29.8129C96.8215 29.2312 96.3152 28.4915 95.9418 27.601C95.5755 26.7032 95.2882 25.7624 95.0799 24.7857C94.8789 23.809 94.6634 22.94 94.4336 22.1715C93.8662 20.096 92.8895 18.8607 91.5034 18.4657C90.1137 18.0635 88.6163 18.6596 87.0076 20.2468Z" fill="white"/>
<path d="M105.392 30.6744C104.674 30.6744 104.071 30.4302 103.583 29.9419C103.094 29.4535 102.85 28.8503 102.85 28.1321C102.85 27.4426 103.094 26.8537 103.583 26.3654C104.071 25.877 104.674 25.6328 105.392 25.6328C106.082 25.6328 106.671 25.877 107.159 26.3654C107.648 26.8537 107.892 27.4426 107.892 28.1321C107.892 28.8503 107.648 29.4535 107.159 29.9419C106.671 30.4302 106.082 30.6744 105.392 30.6744Z" fill="white"/>
</g>
<path d="M69.3635 41.7053C69.3635 41.411 69.2448 41.1358 69.0075 40.8796C68.7703 40.6233 68.4713 40.3908 68.1107 40.182C67.7595 39.9637 67.2802 39.6979 66.6728 39.3847C65.9515 39.0051 65.3725 38.6824 64.9359 38.4167C64.4994 38.1414 64.1245 37.8187 63.8113 37.4486C63.5076 37.0784 63.3557 36.6703 63.3557 36.2243C63.3557 35.7497 63.555 35.2419 63.9536 34.701C64.3523 34.1505 64.8363 33.6902 65.4057 33.32C65.9847 32.9404 66.5162 32.7506 67.0002 32.7506C67.5887 32.7506 68.272 32.8218 69.0503 32.9641C69.8285 33.1065 70.398 33.2583 70.7586 33.4197V36.1815H70.2176C69.7526 35.4128 69.2401 34.8149 68.6801 34.3878C68.1296 33.9607 67.5507 33.7471 66.9433 33.7471C66.4023 33.7471 65.9705 33.918 65.6478 34.2596C65.3346 34.5918 65.178 35.0284 65.178 35.5694C65.178 35.8826 65.2966 36.1768 65.5339 36.452C65.7806 36.7178 66.0796 36.9551 66.4308 37.1639C66.7914 37.3727 67.2897 37.6431 67.9256 37.9753C68.6279 38.3265 69.1974 38.6397 69.6339 38.9149C70.0705 39.1807 70.4359 39.4939 70.7301 39.8545C71.0339 40.2057 71.1857 40.6043 71.1857 41.0504C71.1857 41.5249 70.9722 42.0374 70.5451 42.5879C70.118 43.1289 69.596 43.5892 68.9791 43.9688C68.3717 44.339 67.8164 44.5241 67.3134 44.5241C66.6965 44.5241 65.961 44.4529 65.1068 44.3105C64.2621 44.1682 63.6547 44.0163 63.2845 43.855V41.0931H63.8255C64.3095 41.8619 64.86 42.4598 65.4769 42.8869C66.0938 43.314 66.7297 43.5275 67.3846 43.5275C67.7737 43.5275 68.1201 43.4421 68.4239 43.2713C68.7276 43.1004 68.9601 42.8774 69.1214 42.6022C69.2828 42.3174 69.3635 42.0185 69.3635 41.7053ZM75.8865 44.2536C75.6682 44.3295 75.4025 44.3675 75.0893 44.3675C74.3015 44.3675 73.7226 44.1634 73.3524 43.7553C72.9918 43.3377 72.8114 42.6971 72.8114 41.8334V37.6764H71.2739V37.0927L73.9788 33.9464H74.5198V37.0927H77.0823V37.6764H74.5198V42.0042C74.5198 42.773 74.8899 43.1574 75.6302 43.1574C75.8295 43.1574 76.0194 43.1147 76.1997 43.0292C76.3895 42.9438 76.622 42.792 76.8973 42.5737L77.3244 43.1147L75.8865 44.2536ZM85.568 44.2251H82.8631V42.7445L81.0551 44.2536C80.8558 44.3295 80.5948 44.3675 80.2721 44.3675C79.6267 44.3675 79.1142 44.1729 78.7345 43.7838C78.3549 43.3852 78.1651 42.8489 78.1651 42.1751V38.7726L76.8981 38.0323V37.5909L79.3325 36.3951H79.8735V41.4632C79.8735 41.9852 79.9541 42.3506 80.1155 42.5594C80.2768 42.7682 80.5663 42.8726 80.9839 42.8726C81.2781 42.8726 81.5676 42.8204 81.8523 42.716C82.137 42.6022 82.474 42.3839 82.8631 42.0612V38.7726L81.5961 38.0323V37.5909L84.0305 36.3951H84.5715V43.1574L85.8527 43.6556L85.568 44.2251ZM94.597 44.2251H91.8921V43.2001L90.5681 44.2536C90.2644 44.3295 89.899 44.3675 89.4719 44.3675C88.8455 44.3675 88.2808 44.2061 87.7778 43.8834C87.2842 43.5512 86.8951 43.1052 86.6104 42.5452C86.3351 41.9852 86.1975 41.3683 86.1975 40.6945C86.1975 39.9637 86.4206 39.2803 86.8666 38.6444C87.3127 37.9991 87.8679 37.4865 88.5323 37.1069C89.2061 36.7178 89.8563 36.5232 90.4827 36.5232C91.0047 36.5232 91.4792 36.6703 91.9063 36.9645V34.0319L90.6393 33.1492V32.7079L93.0737 31.7967H93.6147V43.1574L94.8817 43.6556L94.597 44.2251ZM90.1979 43.1574C90.4827 43.1574 90.7532 43.1194 91.0094 43.0435C91.2752 42.9581 91.5694 42.8015 91.8921 42.5737V39.3278C91.8351 38.8532 91.6121 38.4689 91.223 38.1746C90.8433 37.8709 90.3213 37.7191 89.657 37.7191C88.5845 37.7191 88.0482 38.4831 88.0482 40.0111C88.0482 40.9033 88.2333 41.6531 88.6035 42.2605C88.9736 42.8584 89.5051 43.1574 90.1979 43.1574ZM98.869 44.2251H94.8971V43.7838L96.1641 42.7872V38.6302L94.8971 37.7475V37.3062L97.3315 36.3951H97.8725V43.1574L99.1537 43.6556L98.869 44.2251ZM96.9613 32.1242C97.2461 32.1242 97.4786 32.2286 97.6589 32.4374C97.8487 32.6462 97.9436 32.9072 97.9436 33.2204C97.9436 33.4387 97.8772 33.6475 97.7443 33.8468C97.6115 34.0366 97.4454 34.1885 97.2461 34.3023C97.0467 34.4162 96.8522 34.4732 96.6624 34.4732C96.3776 34.4732 96.1404 34.3688 95.9505 34.16C95.7702 33.9512 95.6801 33.6902 95.6801 33.377C95.6801 33.1587 95.7465 32.9546 95.8794 32.7648C96.0122 32.5655 96.1783 32.4089 96.3776 32.295C96.5769 32.1811 96.7715 32.1242 96.9613 32.1242ZM103.79 36.5232C104.417 36.5232 104.976 36.6893 105.47 37.0215C105.973 37.3442 106.362 37.7855 106.637 38.3455C106.922 38.9054 107.064 39.5223 107.064 40.1962C107.064 40.927 106.841 41.6151 106.395 42.2605C105.949 42.8964 105.389 43.4089 104.715 43.798C104.051 44.1776 103.406 44.3675 102.779 44.3675C102.153 44.3675 101.588 44.2061 101.085 43.8834C100.592 43.5512 100.203 43.1052 99.9178 42.5452C99.6426 41.9852 99.505 41.3683 99.505 40.6945C99.505 39.9637 99.728 39.2803 100.174 38.6444C100.62 37.9991 101.175 37.4865 101.84 37.1069C102.514 36.7178 103.164 36.5232 103.79 36.5232ZM102.964 37.7191C101.892 37.7191 101.356 38.4831 101.356 40.0111C101.356 40.9128 101.55 41.6673 101.939 42.2747C102.329 42.8726 102.884 43.1716 103.605 43.1716C104.678 43.1716 105.214 42.4028 105.214 40.8653C105.214 39.9732 105.019 39.2281 104.63 38.6302C104.241 38.0228 103.686 37.7191 102.964 37.7191Z" fill="white"/>
</g>
<defs>
<clipPath id="clip0_1_2603">
<rect width="108.244" height="46.1932" fill="white"/>
</clipPath>
<clipPath id="clip1_1_2603">
<rect width="108.244" height="36.5409" fill="white" transform="translate(-0.000976562 2.06836)"/>
</clipPath>
</defs>
</svg>
